HIERARCHY
ROOT hip
{
	OFFSET 0.000000 0.000000 0.000000 
	CHANNELS 6 Xposition Yposition Zposition Xrotation Zrotation Yrotation
	JOINT abdomen
	{
		OFFSET 0.000000 3.402643 0.000000 
		CHANNELS 3 Xrotation Zrotation Yrotation
		JOINT chest
		{
			OFFSET 0.000000 8.438565 -0.680529 
			CHANNELS 3 Xrotation Zrotation Yrotation
			JOINT neck
			{
				OFFSET 0.000000 10.207942 -0.272212 
				CHANNELS 3 Xrotation Zrotation Yrotation
				JOINT head
				{
					OFFSET 0.000000 3.130431 0.000000 
					CHANNELS 3 Xrotation Zrotation Yrotation
					End Site
					{
						OFFSET 0.000000 3.130435 0.000000 
					}
				}
			}
			JOINT lCollar
			{
				OFFSET 3.470700 6.669187 -0.816635 
				CHANNELS 3 Yrotation Zrotation Xrotation
				JOINT lShldr
				{
					OFFSET 3.198488 0.000000 0.000000 
					CHANNELS 3 Zrotation Yrotation Xrotation
					JOINT lForeArm
					{
						OFFSET 10.139888 0.000000 0.000000 
						CHANNELS 3 Yrotation Zrotation Xrotation
						JOINT lHand
						{
							OFFSET 8.370511 0.000000 0.000000 
							CHANNELS 3 Zrotation Yrotation Xrotation
							End Site
							{
								OFFSET 4.083176 0.000000 0.000000 
							}
						}
					}
				}
			}
			JOINT rCollar
			{
				OFFSET -3.470700 6.669187 -0.816635 
				CHANNELS 3 Yrotation Zrotation Xrotation
				JOINT rShldr
				{
					OFFSET -3.198488 0.000000 0.000000 
					CHANNELS 3 Zrotation Yrotation Xrotation
					JOINT rForeArm
					{
						OFFSET -10.139888 0.000000 0.000000 
						CHANNELS 3 Yrotation Zrotation Xrotation
						JOINT rHand
						{
							OFFSET -8.370511 0.000000 0.000000 
							CHANNELS 3 Zrotation Yrotation Xrotation
							End Site
							{
								OFFSET -4.083176 0.000000 0.000000 
							}
						}
					}
				}
			}
		}
	}
	JOINT lThigh
	{
		OFFSET 5.308129 -1.633274 1.361059 
		CHANNELS 3 Xrotation Zrotation Yrotation
		JOINT lShin
		{
			OFFSET -2.041588 -20.007561 0.000000 
			CHANNELS 3 Xrotation Zrotation Yrotation
			JOINT lFoot
			{
				OFFSET 0.000000 -19.190928 -1.224953 
				CHANNELS 3 Xrotation Yrotation Zrotation
				End Site
				{
					OFFSET 0.000000 -2.449906 4.627600 
				}
			}
		}
	}
	JOINT rThigh
	{
		OFFSET -5.308129 -1.633274 1.361059 
		CHANNELS 3 Xrotation Zrotation Yrotation
		JOINT rShin
		{
			OFFSET 2.041588 -20.007561 0.000000 
			CHANNELS 3 Xrotation Zrotation Yrotation
			JOINT rFoot
			{
				OFFSET 0.000000 -19.190928 -1.224953 
				CHANNELS 3 Xrotation Yrotation Zrotation
				End Site
				{
					OFFSET 0.000000 -2.449906 4.627600 
				}
			}
		}
	}
}
MOTION
Frames: 20
Frame Time: 0.033333
3.677428 -0.580868 5.544784 68.831245 -38.129093 5.374454 0.000000 0.000000 0.000000 13.724992 23.304840 -4.496382 18.551464 -11.337952 -7.591016 -21.409578 14.291105 39.350101 1.992188 -2.001953 0.000341 5.101370 -0.000638 -94.153458 -54.291103 1.287915 20.042509 23.740622 -44.090385 27.395521 -2.001953 1.992188 0.000000 16.853653 -34.752399 -23.040951 37.169773 -0.939350 19.611168 -25.560764 53.847610 18.770365 40.392170 10.788684 -2.707113 38.773499 -0.866981 -3.094143 25.939568 17.942194 -11.466739 23.770710 -14.129163 -22.409464 77.964981 -1.604495 4.309735 14.589783 -19.857821 11.380043 
3.515773 -0.716236 5.383129 71.587189 -35.440823 4.025930 0.000000 0.000000 0.000000 10.779714 23.864534 -5.564364 18.551464 -11.337952 -7.591016 -13.610807 11.867227 42.541111 1.992188 -2.001953 0.000341 0.475815 -0.881507 -88.544846 -65.644150 1.467929 20.382690 21.281965 -44.432243 35.658550 -2.001953 1.992188 0.000000 12.089465 -13.003459 -29.418676 22.882896 -0.535703 19.351570 -45.129200 55.375542 8.095366 32.903889 11.891797 -3.396737 33.959263 -1.085062 -2.829425 21.927525 17.148529 -6.718104 19.774731 -14.199020 -22.665852 64.509422 -0.677663 4.060457 10.124943 -21.722322 0.777420 
3.354190 -0.851516 5.221547 74.172905 -32.701744 2.863143 0.000000 0.000000 0.000000 7.801562 24.384527 -6.671235 18.551464 -11.337952 -7.591016 -6.027753 9.047671 45.336281 1.992188 -2.001953 0.000341 -4.208627 -1.315135 -82.896744 -77.003174 1.578535 20.743191 18.777964 -44.520374 43.961445 -2.001953 1.992188 0.000000 5.055313 8.030299 -37.447021 8.602536 -0.077103 19.193655 -65.036331 54.730301 -2.939445 25.368299 12.918230 -4.208147 29.131901 -1.279978 -2.544489 18.020308 16.017599 -2.049466 15.766122 -14.285369 -22.883589 51.039436 0.171657 3.595996 5.342840 -22.794939 -10.024092 
3.515845 -0.580775 5.383201 72.135963 -28.451469 3.853547 0.000000 0.000000 0.000000 19.557247 23.202332 -3.547797 18.551464 -11.337952 -7.591016 -19.006470 11.498802 42.602005 1.992188 -2.001953 0.000341 -3.643838 -8.613262 -89.211517 -85.551262 1.607436 21.035162 17.098955 -46.719620 50.772251 -2.001953 1.992188 0.000000 -2.321913 20.655680 -62.644131 10.247458 -0.129440 19.206785 -69.360519 50.461521 -2.977864 16.128843 14.096843 -5.482360 25.532642 -1.416615 -2.319251 13.649020 14.761489 1.178019 10.033228 -15.230410 -22.600084 38.180622 0.845041 2.998947 -0.285852 -15.636474 -17.205051 
3.677460 -0.310062 5.544816 70.259514 -24.187872 4.623915 0.000000 0.000000 0.000000 31.112341 21.463053 -0.776164 18.551464 -11.337952 -7.591016 -32.193619 13.273732 39.340767 1.992188 -2.001953 0.000341 -2.227346 -15.800703 -95.783386 -94.099037 1.591780 21.321613 14.974206 -48.765362 57.938938 -2.001953 1.992188 0.000000 -15.635880 28.655476 -91.580605 11.885610 -0.187591 19.224504 -73.323914 46.197365 -2.541366 6.813085 15.069626 -6.965484 21.939274 -1.537453 -2.094801 9.385693 13.308286 4.234200 4.252913 -16.155636 -22.207968 25.330519 1.382261 2.262659 -4.779860 -7.901404 -23.428869 
3.677460 -0.136013 5.544816 72.017593 -22.332037 4.063640 0.000000 0.000000 0.000000 28.009155 20.913389 -1.251528 18.551464 -11.337952 -7.591016 -43.273983 23.030262 34.148415 1.992188 -2.001953 0.000341 -3.379734 -17.897478 -94.061432 -95.752953 1.579753 21.381643 12.206713 -49.088726 61.232948 -2.001953 1.992188 0.000000 -9.941147 29.453407 -92.601082 19.584484 -0.429814 19.308496 -69.467834 47.548698 -2.235129 5.652682 14.007862 -6.911761 30.861383 -1.212160 -2.665743 5.090935 8.314631 5.377650 3.433136 -19.542606 -21.630579 33.512337 1.069376 2.753591 -13.823441 -6.192816 -18.288738 
3.677460 0.038053 5.544816 73.729149 -20.461458 3.574996 0.000000 0.000000 0.000000 24.923601 20.343260 -1.705338 18.551464 -11.337952 -7.591016 -56.270576 31.545765 26.434031 1.992188 -2.001953 0.000341 -4.597536 -19.962080 -92.278427 -97.409927 1.584652 21.439114 9.407053 -49.297821 64.544205 -2.001953 1.992188 0.000000 -4.209069 30.341303 -93.527802 27.275181 -0.660948 19.418619 -65.494019 48.880661 -1.774920 4.501706 12.948027 -6.844975 39.788422 -0.812402 -3.155957 0.949687 3.220021 6.133230 2.544892 -22.911905 -20.964029 41.684372 0.678561 3.184152 -22.943066 -5.315843 -12.934017 
3.677460 0.289450 5.544816 75.850105 -18.940634 3.001610 0.000000 0.000000 0.000000 19.597935 19.913382 -2.554646 18.551464 -11.337952 -7.591016 -44.596348 28.715710 29.653301 1.992188 -2.001953 0.000341 -6.949942 -21.112791 -89.118515 -98.155411 1.568686 21.456909 6.456101 -49.196594 67.395302 -2.001953 1.992188 0.000000 0.999077 31.679993 -91.441719 29.142115 -0.714079 19.457916 -62.121841 52.585167 3.869184 3.612874 13.922997 -7.176910 26.373493 -1.387641 -2.386316 14.580071 -5.275281 4.485598 4.215287 -19.467676 -21.742149 28.421528 1.264783 2.445786 -11.737569 -5.904682 -11.982450 
3.677460 0.540851 5.544816 77.934174 -17.406332 2.495656 0.000000 0.000000 0.000000 14.293930 19.412531 -3.354015 18.551464 -11.337952 -7.591016 -33.433270 25.381365 32.090191 1.992188 -2.001953 0.000341 -9.388337 -22.130564 -85.896332 -98.903984 1.571297 21.474735 3.519221 -49.000931 70.233589 -2.001953 1.992188 0.000000 6.328127 32.847183 -89.185303 31.011648 -0.760521 19.493153 -57.812000 56.042786 10.409234 2.714876 14.880453 -7.524031 12.942784 -1.747452 -1.498390 28.304399 -13.905664 4.865176 5.804422 -15.988519 -22.388840 15.164639 1.665635 1.598559 -0.509621 -6.298382 -10.941025 
3.677460 0.811583 5.544816 79.919182 -16.162125 2.042945 0.000000 0.000000 0.000000 8.800651 18.976860 -4.159542 18.551464 -11.337952 -7.591016 -21.330332 21.324511 35.171707 1.992188 -2.001953 0.000341 -11.941011 -22.331486 -82.681969 -99.099457 1.572190 21.485996 0.941510 -48.689999 72.447594 -2.001953 1.992188 0.000000 11.554358 33.267864 -86.528961 31.810022 -0.796261 19.509336 -52.298515 59.498379 19.103315 1.533802 15.363953 -7.822463 10.351761 -1.787125 -1.333409 31.130486 -20.530880 4.265372 4.870069 -14.801620 -22.325830 13.116188 1.713600 1.455766 2.885513 -6.947578 -9.408345 
3.677460 1.082294 5.544816 81.873970 -14.896532 1.636799 0.000000 0.000000 0.000000 3.319865 18.471449 -4.921985 18.551464 -11.337952 -7.591016 -9.774809 16.779373 37.234917 1.992188 -2.001953 0.000341 -14.498731 -22.401182 -79.467636 -99.291924 1.563979 21.495588 -1.592746 -48.306381 74.620422 -2.001953 1.992188 0.000000 16.822313 33.484146 -83.819969 32.616608 -0.821528 19.525887 -45.165993 62.426857 29.373495 0.342677 15.860151 -8.170499 7.740560 -1.815396 -1.145595 34.053391 -27.187088 3.982074 3.933012 -13.609575 -22.292929 11.071292 1.753340 1.310768 6.294722 -7.476252 -7.862214 
3.677460 1.275676 5.544816 83.211777 -13.882801 1.387948 0.000000 0.000000 0.000000 -0.310761 18.040829 -5.369778 18.551464 -11.337952 -7.591016 -1.881766 13.358623 39.347176 1.992188 -2.001953 0.000341 -16.032267 -22.250687 -77.532135 -99.313347 1.559750 21.497131 -3.342824 -48.002636 76.148308 -2.001953 1.992188 0.000000 20.866014 33.268131 -82.023849 34.023674 -0.856009 19.549227 -39.461254 64.014763 37.244492 -0.594183 16.113489 -8.395720 7.716087 -1.835941 -1.135688 34.020416 -31.497885 3.462911 2.899896 -13.125527 -22.159319 11.387436 1.752588 1.327828 7.720168 -7.972454 -6.656940 
3.677460 1.469008 5.544816 84.543839 -12.858727 1.170427 0.000000 0.000000 0.000000 -3.932783 17.591206 -5.787040 18.551464 -11.337952 -7.591016 5.780394 9.696576 40.930820 1.992188 -2.001953 0.000341 -17.565062 -22.043337 -75.595734 -99.334831 1.565158 21.500231 -5.071544 -47.679146 77.653381 -2.001953 1.992188 0.000000 24.900490 32.948715 -80.250107 35.434444 -0.885620 19.577398 -32.976677 65.205170 45.884140 -1.541508 16.361994 -8.635878 7.678310 -1.824540 -1.142798 33.941082 -35.817722 2.865945 1.874179 -12.635945 -22.054850 11.686239 1.733885 1.342092 9.178409 -8.460521 -5.435203 
3.677460 1.507688 5.544816 85.019806 -12.185286 1.106969 0.000000 0.000000 0.000000 -4.964033 17.317682 -5.830693 18.551464 -11.337952 -7.591016 7.707949 8.401455 43.103054 1.992188 -2.001953 0.000341 -17.496058 -21.992926 -75.407127 -99.131569 1.565404 21.494097 -5.729615 -47.558487 78.298683 -2.001953 1.992188 0.000000 27.369141 32.977779 -79.751640 38.007290 -0.958095 19.634993 -30.788239 65.487411 48.651802 -1.921329 16.428162 -8.718872 7.708021 -1.823306 -1.163839 33.452820 -36.879902 2.348226 1.668017 -12.447586 -22.036839 11.526999 1.743316 1.334450 10.409667 -8.635206 -5.081850 
3.677460 1.546318 5.544816 85.504028 -11.511803 1.045689 0.000000 0.000000 0.000000 -5.985093 17.044193 -5.871577 18.551464 -11.337952 -7.591016 9.594551 7.045162 45.220047 1.992188 -2.001953 0.000341 -17.427999 -21.930775 -75.209763 -98.925354 1.566216 21.487143 -6.394233 -47.430485 78.957352 -2.001953 1.992188 0.000000 29.841309 32.986835 -79.258362 40.573391 -1.021134 19.693924 -28.534712 65.714027 51.490246 -2.302770 16.488054 -8.841923 7.730557 -1.815324 -1.145059 32.972775 -37.940460 1.841825 1.463763 -12.284380 -22.031534 11.369473 1.742938 1.316279 11.652999 -8.808392 -4.704640 
3.677460 1.449628 5.544816 85.449692 -11.179792 1.053379 0.000000 0.000000 0.000000 -5.583296 16.911655 -5.745306 18.551464 -11.337952 -7.591016 9.053912 6.508611 47.581303 1.992188 -2.001953 0.000341 -16.279224 -21.806723 -76.025887 -98.345444 1.580640 21.466639 -6.329520 -47.441795 78.901993 -2.001953 1.992188 0.000000 31.447987 33.448368 -79.332718 43.556877 -1.088417 19.763424 -28.792221 65.687111 51.158611 -2.507172 16.467493 -8.876848 8.180085 -1.814146 -1.198483 32.077930 -37.843555 1.399857 1.473564 -12.293984 -22.032864 11.369139 1.742890 1.326017 12.588637 -8.880774 -4.619079 
3.677460 1.352930 5.544816 85.403343 -10.847748 1.072597 0.000000 0.000000 0.000000 -5.179174 16.779266 -5.609713 18.551464 -11.337952 -7.591016 8.486662 5.994917 49.942520 1.992188 -2.001953 0.000341 -15.143921 -21.661396 -76.825821 -97.759315 1.576640 21.442694 -6.251395 -47.463692 78.825684 -2.001953 1.992188 0.000000 33.056175 33.918247 -79.409874 46.553772 -1.154819 19.839705 -29.037106 65.662155 50.857502 -2.724105 16.453737 -8.931528 8.621524 -1.806121 -1.202253 31.190407 -37.737583 0.944068 1.464128 -12.294863 -22.022572 11.398406 1.742932 1.337337 13.501354 -8.974520 -4.521175 
3.677460 1.236903 5.544816 85.148033 -10.632841 1.101408 0.000000 0.000000 0.000000 -4.210266 16.706394 -5.424572 18.551464 -11.337952 -7.591016 6.939695 5.827064 52.384892 1.992188 -2.001953 0.000341 -13.594078 -21.438536 -78.042259 -97.027710 1.580431 21.417931 -5.871104 -47.533573 78.451225 -2.001953 1.992188 0.000000 34.342129 34.623058 -79.645493 49.705914 -1.220296 19.923765 -30.282278 65.536797 49.292210 -2.869943 16.404589 -8.933470 9.078243 -1.804307 -1.275581 30.157154 -37.194374 0.571503 1.542006 -12.362639 -22.022680 11.487206 1.743176 1.342080 14.296876 -9.020933 -4.529351 
3.677460 1.120876 5.544816 84.892746 -10.427697 1.130243 0.000000 0.000000 0.000000 -3.240937 16.623587 -5.236638 18.551464 -11.337952 -7.591016 5.383038 5.719502 54.827324 1.992188 -2.001953 0.000341 -12.046250 -21.194464 -79.259407 -96.297874 1.593267 21.392511 -5.500165 -47.600418 78.090393 -2.001953 1.992188 0.000000 35.634159 35.321552 -79.878937 52.869034 -1.290420 20.007818 -31.517996 65.398697 47.729507 -3.006773 16.346077 -8.944654 9.525948 -1.794394 -1.338113 29.142330 -36.631950 0.192485 1.619717 -12.430032 -22.022860 11.576357 1.743216 1.337066 15.096738 -9.058784 -4.546469 
3.677460 1.014519 5.544816 84.750008 -10.154279 1.139887 0.000000 0.000000 0.000000 -2.552512 16.520372 -5.082368 18.551464 -11.337952 -7.591016 4.273819 5.420577 57.222298 1.992188 -2.001953 0.000341 -10.738752 -20.936327 -80.265213 -95.637245 1.592524 21.368832 -5.282259 -47.635796 77.861420 -2.001953 1.992188 0.000000 37.091637 35.959221 -79.970528 55.942780 -1.336187 20.096430 -32.255501 65.302757 46.795601 -3.181350 16.312595 -8.997402 9.981765 -1.806828 -1.314837 28.198217 -36.319885 -0.168873 1.649053 -12.468274 -22.027782 11.625340 1.743302 1.349439 15.973465 -9.122054 -4.510367 
